# xmcd
#
# Track frame offsets: 
#        150
#        32752
#        54521
#        71216
#        94263
#        116392
#        142219
#        162746
#        189086
#        212268
#        238867
#        259212
#        289809
#
# Disc length: 4131 seconds
#
# Revision: 4
# Processed by: cddbd v1.5.2PL0 Copyright (c) Steve Scherf et al.
# Submitted via: ExactAudioCopy v0.95b4
#
DISCID=c610210d
DTITLE=Earl, Perkins, Jones, Smith - Eye To Eye
DYEAR=1996
DGENRE=Blues
TTITLE0=How long
TTITLE1=Country girl
TTITLE2='tops boogie woogie
TTITLE3=Eye to eye
TTITLE4='yonders wall
TTITLE5=Ronnies blues
TTITLE6=Shake for me
TTITLE7=Miss Ida B.
TTITLE8=Kidney stew
TTITLE9=I woke up this morning
TTITLE10=Take it easy baby
TTITLE11=Anna Lee
TTITLE12=Forty four blues
EXTD=
EXTT0=Menphis Slim  - LudlowMusic BMI\n
EXTT1=Little Willie John\n
EXTT2=Willie Pinetop Perkins - BMI\n
EXTT3=Willie Smith Rodai Music BMI\n
EXTT4=Ellmore James ARC Music BMI\n
EXTT5=Willie Pinetop Perkins\n
EXTT6=Willie Dixon  Bug Music BMI\n
EXTT7=Roosevelt Skynes Prestige Music BMI\n
EXTT8=Vinson, Blackman - Cherio Corp - BMI\n
EXTT9=Willie Smith Radai Music BMI\n
EXTT10=Sonny boy Willianson - Arc Music BMI\n
EXTT11=Robert McCullum - Arc Music BMI\n
EXTT12=Roosevelt sykes - Prestige Music - BMI\n
PLAYORDER=
